<?xml version="1.0" encoding="utf-8"?>
<!-- Generator: Adobe Illustrator 22.0.1, SVG Export Plug-In . SVG Version: 6.00 Build 0)  -->
<svg version="1.1" xmlns="http://www.w3.org/2000/svg" xmlns:xlink="http://www.w3.org/1999/xlink" x="0px" y="0px"
	 viewBox="0 0 1000 1000" style="enable-background:new 0 0 1000 1000;" xml:space="preserve">
<style type="text/css">
	.st0{fill:url(#SVGID_1_);}
	.st1{fill:#FFFFFF;}
	.st2{display:none;}
	.st3{display:inline;}
	.st4{opacity:0.7;fill:#161B22;}
	.st5{opacity:0.7;fill:url(#SVGID_2_);}
</style>
<g id="Calque_1">
	<g>
		<linearGradient id="SVGID_1_" gradientUnits="userSpaceOnUse" x1="500.2057" y1="998.3214" x2="500.2057" y2="2.9985">
			<stop  offset="0.4714" style="stop-color:#161B22"/>
			<stop  offset="0.6502" style="stop-color:#423937"/>
			<stop  offset="0.8064" style="stop-color:#685144"/>
			<stop  offset="0.928" style="stop-color:#82634C"/>
			<stop  offset="1" style="stop-color:#8D6A4F"/>
		</linearGradient>
		<circle class="st0" cx="500.2" cy="500.7" r="497.7"/>
		<path class="st1" d="M754.3,499.6c45.5-23.8,96.4-82.3,102.9-112.6c6.5-30.3-105-45.5-124.5-47.6c-19.5-2.2-71.5-42.2-108.3-76.9
			c-36.8-34.7-79-45.5-79-45.5c14.1-16.2,35.7-8.7,35.7-8.7c-48.7-26-82.3-3.2-82.3-3.2c-5.4-27.1,41.1-30.3,41.1-30.3
			c-60.4-27-113.7,17.3-113.7,17.3c2.2-19.5,28.2-27.1,28.2-27.1c-58.5,15.2-65,28.2-86.6,44.4C346,225.6,319,231,319,231
			s-65-11.9-76.3-14.1c-11.4-2.2-26.5-17.3-63.3-16.2s-34.7,44.4-34.7,44.4S123,270,132.7,311.2c9.7,41.1,43.3,70.4,55.2,81.2
			s26,63.9,26,63.9S172.8,505,150,505s-23.8,24.9-23.8,24.9c11.9,52,32.5,48.7,95.3,56.3c26.9,3.3,56.1,19.5,80.6,36.9
			c2.4-3.6,5-7.2,8.5-10.5c6.9-6.5,11.9-15.8,11.9-15.8l-22.8-6.6c0,0-7.4-1.8,1.7-10.6c1.4-1.4,2.7-2.7,4-4c-0.1,0-0.2,0-0.3-0.1
			c-19.8-5.5,5.4-15.1,5.4-15.1l0,0c0-1.1,0-2.4,0.1-4c0.3-24.5,15.7-35.2,15.7-35.2c0.1,5.9,2.1,5.3,2.1,5.3
			c3.9-11.7,15.8-14,15.8-14c-3.4,4.4-3,7.9-3,7.9c14.8-4.2,20.9,0.3,28.2,2.1c7.3,1.8,25.6-11.4,25.6-11.4
			c10.9-11,11.3,3.7,11.3,3.7s1.4,0.6,2.2,10.2c0.8,9.6-6.8,17.6-6.8,17.6c13.7-2.9,17.2,0.2,14.5,8.3c-2.7,8.2-20,17.9-20,17.9
			c-1.8,8.8-3.4,8.2-8.8,17.9c-5.4,9.7-4.7,29.6,5.1,50.6c9.8,21,1.8,33,1.8,33c-3.1-7.8-5.4-7.8-5.4-7.8
			c4.3,25.6-11.1,40.9-11.1,40.9l0.2-9.9c-2.4,6.7-7.3,11.9-7.3,11.9c0.1,30.9-4.5,44-7.1,56.6c-2.7,12.5,4.4,16.2,6.6,17.2
			c2.2,1.1,5.2,4.2,5.1,12.8c0,4.3-3.5,6.1-7,6.8c28.1,27,72.2,50.8,122.5,69.9c-0.1-3-0.1-6.2-0.1-9.5c0,0-6.8-7.2-10.1-16.5
			l0.3,13.7c0,0-21.4-21.2-15.4-56.7c0,0-3.1,0-7.5,10.9c0,0-11.1-16.6,2.5-45.8c13.6-29.2,14.6-56.8,7.1-70.2
			c-7.5-13.5-9.7-12.6-12.2-24.8c0,0-24-13.5-27.7-24.9c-3.7-11.3,1.2-15.6,20.2-11.5c0,0-10.6-11.2-9.4-24.4
			c1.1-13.3,3.1-14.1,3.1-14.1s0.5-20.4,15.7-5.1c0,0,25.5,18.2,35.6,15.8c10.1-2.4,18.5-8.6,39.1-2.8c0,0,0.6-4.9-4.1-11
			c0,0,4.1,0.8,8.8,3.6c-6.2-10.1-8.6-11.2-11.2-23.9c0,0-29.1-16.4-33.6-30.1c-4.5-13.7,1.4-18.9,24.4-14c0,0-12.8-13.5-11.5-29.6
			c1.4-16.1,3.7-17.1,3.7-17.1s0.6-24.7,19-6.2c0,0,30.9,22.1,43.1,19.2c12.2-2.9,22.5-10.4,47.3-3.4c0,0,0.7-5.9-5-13.3
			c0,0,20,4,26.6,23.6c0,0,3.3,1,3.5-8.9c0,0,20.3,14.1,25.3,46c15.7,7,37.3,18.6,19.1,22.8c-1.9,0.4-3.6,0.8-5.3,1.1
			c5.9,5.3,12.3,11.3,15.6,15c7.4,8.2-3.3,11-3.3,11l-36.6,9.1c0,0,17.1,17.5,30,40.1c12.9,22.5,29.3,60.5,59.4,88.6
			c11.8,11,76,39,95.2,105c-12.5-84.7-50.7-179.3-75.3-227.7c-29.2-57.4-48.7-79-48.7-79S708.8,523.4,754.3,499.6z M462.4,412.4
			c-37.1,0-67.1-30.1-67.1-67.1c0-24.9,13.6-46.6,33.8-58.2c-8.5,11.2-13.6,25.2-13.6,40.4c0,37.1,30.1,67.1,67.1,67.1
			c12.2,0,23.5-3.3,33.4-8.9C503.7,401.9,484.3,412.4,462.4,412.4z"/>
		<g>
			<path class="st1" d="M712.2,907.9h-74V782.8h14.8v111.9h59.2V907.9z"/>
		</g>
		<g>
			<path class="st1" d="M581,800h-74V674.9h14.8v111.9H581V800z"/>
		</g>
		<g>
			<path class="st1" d="M663.3,715.7l1.8-18.8h-0.9l-6.8,17.2l-32.5,56.5h-4.5l-34.5-56.7l-6.4-17h-0.9l2.5,18.6v84.2h-13.9V674.6
				h11.1l39.1,64l5.9,13.9h0.4l5.5-14.3l37.4-63.6h11.6v125.1h-14.8V715.7z"/>
		</g>
		<g>
			<path class="st1" d="M589.2,783.5c1-0.1,2.1-0.3,3.3-0.3c1.2-0.1,2.5-0.1,3.8-0.2c1.3,0,2.6,0,3.9-0.1c1.3,0,2.4,0,3.5,0
				c4.3,0,8,0.7,11.2,2c3.2,1.3,5.8,3.2,7.8,5.6c2.1,2.4,3.6,5.3,4.6,8.6c1,3.3,1.5,7,1.5,11c0,3.7-0.5,7.2-1.4,10.5
				c-1,3.4-2.5,6.3-4.5,8.9c-2,2.6-4.7,4.7-8,6.2s-7.3,2.4-12,2.4c-0.8,0-1.9,0-3.2,0c-1.3,0-2.7-0.1-4-0.2s-2.7-0.1-3.9-0.2
				c-1.2,0-2-0.1-2.5-0.2V783.5z M603.8,788.6c-0.7,0-1.4,0-2.2,0c-0.8,0-1.6,0-2.3,0.1c-0.8,0-1.5,0.1-2.1,0.1
				c-0.6,0-1.1,0.1-1.5,0.2v43.2c0.3,0,0.7,0.1,1.5,0.1c0.7,0,1.5,0.1,2.2,0.1c0.8,0,1.5,0,2.2,0.1c0.7,0,1.2,0,1.5,0
				c3.6,0,6.6-0.6,9-1.8c2.5-1.2,4.4-2.9,5.9-5c1.5-2.1,2.5-4.5,3.1-7.2c0.6-2.7,0.9-5.5,0.9-8.4c0-2.5-0.3-5-0.8-7.6
				c-0.6-2.5-1.5-4.9-2.9-6.9c-1.4-2.1-3.2-3.7-5.6-5S607.3,788.6,603.8,788.6z"/>
		</g>
	</g>
</g>
<g id="Calque_3" class="st2">
	<g class="st3">
		<circle class="st4" cx="500.2" cy="500.7" r="497.7"/>
		<linearGradient id="SVGID_2_" gradientUnits="userSpaceOnUse" x1="500.2057" y1="998.3214" x2="500.2057" y2="2.9985">
			<stop  offset="0" style="stop-color:#8D6A4F"/>
			<stop  offset="7.204099e-02" style="stop-color:#82634C"/>
			<stop  offset="0.1936" style="stop-color:#685144"/>
			<stop  offset="0.3498" style="stop-color:#423937"/>
			<stop  offset="0.5286" style="stop-color:#161B22"/>
		</linearGradient>
		<circle class="st5" cx="500.2" cy="500.7" r="497.7"/>
		<path class="st1" d="M754.3,499.6c45.5-23.8,96.4-82.3,102.9-112.6c6.5-30.3-105-45.5-124.5-47.6c-19.5-2.2-71.5-42.2-108.3-76.9
			c-36.8-34.7-79-45.5-79-45.5c14.1-16.2,35.7-8.7,35.7-8.7c-48.7-26-82.3-3.2-82.3-3.2c-5.4-27.1,41.1-30.3,41.1-30.3
			c-60.4-27-113.7,17.3-113.7,17.3c2.2-19.5,28.2-27.1,28.2-27.1c-58.5,15.2-65,28.2-86.6,44.4C346,225.6,319,231,319,231
			s-65-11.9-76.3-14.1c-11.4-2.2-26.5-17.3-63.3-16.2s-34.7,44.4-34.7,44.4S123,270,132.7,311.2c9.7,41.1,43.3,70.4,55.2,81.2
			s26,63.9,26,63.9S172.8,505,150,505s-23.8,24.9-23.8,24.9c11.9,52,32.5,48.7,95.3,56.3c26.9,3.3,56.1,19.5,80.6,36.9
			c2.4-3.6,5-7.2,8.5-10.5c6.9-6.5,11.9-15.8,11.9-15.8l-22.8-6.6c0,0-7.4-1.8,1.7-10.6c1.4-1.4,2.7-2.7,4-4c-0.1,0-0.2,0-0.3-0.1
			c-19.8-5.5,5.4-15.1,5.4-15.1l0,0c0-1.1,0-2.4,0.1-4c0.3-24.5,15.7-35.2,15.7-35.2c0.1,5.9,2.1,5.3,2.1,5.3
			c3.9-11.7,15.8-14,15.8-14c-3.4,4.4-3,7.9-3,7.9c14.8-4.2,20.9,0.3,28.2,2.1c7.3,1.8,25.6-11.4,25.6-11.4
			c10.9-11,11.3,3.7,11.3,3.7s1.4,0.6,2.2,10.2c0.8,9.6-6.8,17.6-6.8,17.6c13.7-2.9,17.2,0.2,14.5,8.3c-2.7,8.2-20,17.9-20,17.9
			c-1.8,8.8-3.4,8.2-8.8,17.9c-5.4,9.7-4.7,29.6,5.1,50.6c9.8,21,1.8,33,1.8,33c-3.1-7.8-5.4-7.8-5.4-7.8
			c4.3,25.6-11.1,40.9-11.1,40.9l0.2-9.9c-2.4,6.7-7.3,11.9-7.3,11.9c0.1,30.9-4.5,44-7.1,56.6c-2.7,12.5,4.4,16.2,6.6,17.2
			c2.2,1.1,5.2,4.2,5.1,12.8c0,4.3-3.5,6.1-7,6.8c28.1,27,72.2,50.8,122.5,69.9c-0.1-3-0.1-6.2-0.1-9.5c0,0-6.8-7.2-10.1-16.5
			l0.3,13.7c0,0-21.4-21.2-15.4-56.7c0,0-3.1,0-7.5,10.9c0,0-11.1-16.6,2.5-45.8c13.6-29.2,14.6-56.8,7.1-70.2
			c-7.5-13.5-9.7-12.6-12.2-24.8c0,0-24-13.5-27.7-24.9c-3.7-11.3,1.2-15.6,20.2-11.5c0,0-10.6-11.2-9.4-24.4
			c1.1-13.3,3.1-14.1,3.1-14.1s0.5-20.4,15.7-5.1c0,0,25.5,18.2,35.6,15.8c10.1-2.4,18.5-8.6,39.1-2.8c0,0,0.6-4.9-4.1-11
			c0,0,4.1,0.8,8.8,3.6c-6.2-10.1-8.6-11.2-11.2-23.9c0,0-29.1-16.4-33.6-30.1c-4.5-13.7,1.4-18.9,24.4-14c0,0-12.8-13.5-11.5-29.6
			c1.4-16.1,3.7-17.1,3.7-17.1s0.6-24.7,19-6.2c0,0,30.9,22.1,43.1,19.2c12.2-2.9,22.5-10.4,47.3-3.4c0,0,0.7-5.9-5-13.3
			c0,0,20,4,26.6,23.6c0,0,3.3,1,3.5-8.9c0,0,20.3,14.1,25.3,46c15.7,7,37.3,18.6,19.1,22.8c-1.9,0.4-3.6,0.8-5.3,1.1
			c5.9,5.3,12.3,11.3,15.6,15c7.4,8.2-3.3,11-3.3,11l-36.6,9.1c0,0,17.1,17.5,30,40.1c12.9,22.5,29.3,60.5,59.4,88.6
			c11.8,11,76,39,95.2,105c-12.5-84.7-50.7-179.3-75.3-227.7c-29.2-57.4-48.7-79-48.7-79S708.8,523.4,754.3,499.6z M462.4,412.4
			c-37.1,0-67.1-30.1-67.1-67.1c0-24.9,13.6-46.6,33.8-58.2c-8.5,11.2-13.6,25.2-13.6,40.4c0,37.1,30.1,67.1,67.1,67.1
			c12.2,0,23.5-3.3,33.4-8.9C503.7,401.9,484.3,412.4,462.4,412.4z"/>
		<g>
			<path class="st1" d="M712.2,907.9h-74V782.8h14.8v111.9h59.2V907.9z"/>
		</g>
		<g>
			<path class="st1" d="M581,800h-74V674.9h14.8v111.9H581V800z"/>
		</g>
		<g>
			<path class="st1" d="M663.3,715.7l1.8-18.8h-0.9l-6.8,17.2l-32.5,56.5h-4.5l-34.5-56.7l-6.4-17h-0.9l2.5,18.6v84.2h-13.9V674.6
				h11.1l39.1,64l5.9,13.9h0.4l5.5-14.3l37.4-63.6h11.6v125.1h-14.8V715.7z"/>
		</g>
		<g>
			<path class="st1" d="M589.2,783.5c1-0.1,2.1-0.3,3.3-0.3c1.2-0.1,2.5-0.1,3.8-0.2c1.3,0,2.6,0,3.9-0.1c1.3,0,2.4,0,3.5,0
				c4.3,0,8,0.7,11.2,2c3.2,1.3,5.8,3.2,7.8,5.6c2.1,2.4,3.6,5.3,4.6,8.6c1,3.3,1.5,7,1.5,11c0,3.7-0.5,7.2-1.4,10.5
				c-1,3.4-2.5,6.3-4.5,8.9c-2,2.6-4.7,4.7-8,6.2s-7.3,2.4-12,2.4c-0.8,0-1.9,0-3.2,0c-1.3,0-2.7-0.1-4-0.2s-2.7-0.1-3.9-0.2
				c-1.2,0-2-0.1-2.5-0.2V783.5z M603.8,788.6c-0.7,0-1.4,0-2.2,0c-0.8,0-1.6,0-2.3,0.1c-0.8,0-1.5,0.1-2.1,0.1
				c-0.6,0-1.1,0.1-1.5,0.2v43.2c0.3,0,0.7,0.1,1.5,0.1c0.7,0,1.5,0.1,2.2,0.1c0.8,0,1.5,0,2.2,0.1c0.7,0,1.2,0,1.5,0
				c3.6,0,6.6-0.6,9-1.8c2.5-1.2,4.4-2.9,5.9-5c1.5-2.1,2.5-4.5,3.1-7.2c0.6-2.7,0.9-5.5,0.9-8.4c0-2.5-0.3-5-0.8-7.6
				c-0.6-2.5-1.5-4.9-2.9-6.9c-1.4-2.1-3.2-3.7-5.6-5S607.3,788.6,603.8,788.6z"/>
		</g>
	</g>
</g>
</svg>
