<?xml version="1.0" encoding="utf-8"?>
<!-- Generator: Adobe Illustrator 22.0.1, SVG Export Plug-In . SVG Version: 6.00 Build 0)  -->
<svg version="1.1" xmlns="http://www.w3.org/2000/svg" xmlns:xlink="http://www.w3.org/1999/xlink" x="0px" y="0px"
	 viewBox="0 0 891 253" xml:space="preserve">
<style type="text/css">
	.st0{fill:#FFFFFF;}
	.st1{opacity:0.7;}
	.st2{font-family:'PTSans-Regular';}
	.st3{font-size:121.9061px;}
	.st4{font-size:69.313px;}
	.st5{display:none;}
	.st6{display:inline;}
	.st7{fill:#FFFFFF;}
	.st8{display:inline;fill:#FFFFFF;}
</style>
<g id="Calque_1">
	<g>
		<g>
			<path class="st0" d="M77.4,211.1c0-14.2,3.1-25.2,9.4-32.9c6.3-7.7,15.2-11.5,26.8-11.5c6.1,0,11.4,1.1,16,3.2
				c4.6,2.1,8.3,5.1,11.3,9c3,3.9,5.2,8.6,6.7,14c1.5,5.4,2.2,11.5,2.2,18.2c0,14.2-3.1,25.2-9.4,32.9c-6.3,7.7-15.2,11.5-26.8,11.5
				c-6.2,0-11.5-1.1-16.1-3.2c-4.6-2.1-8.3-5.1-11.3-9c-3-3.9-5.2-8.6-6.6-14C78.2,223.8,77.4,217.8,77.4,211.1z M95,211.1
				c0,4.3,0.4,8.3,1.1,11.9c0.7,3.6,1.8,6.7,3.4,9.3c1.5,2.6,3.4,4.6,5.8,6.1c2.4,1.5,5.2,2.2,8.4,2.2c5.9,0,10.5-2.3,13.8-6.9
				c3.2-4.6,4.9-12.1,4.9-22.6c0-4.1-0.3-8-1-11.6c-0.7-3.6-1.8-6.7-3.2-9.4c-1.5-2.7-3.4-4.8-5.7-6.3c-2.4-1.5-5.2-2.3-8.7-2.3
				c-5.9,0-10.5,2.4-13.8,7.1C96.6,193.5,95,200.9,95,211.1z"/>
		</g>
		<g class="st1">
			<path class="st0" d="M77.4,211.1c0-14.2,3.1-25.2,9.4-32.9c6.3-7.7,15.2-11.5,26.8-11.5c6.1,0,11.4,1.1,16,3.2
				c4.6,2.1,8.3,5.1,11.3,9c3,3.9,5.2,8.6,6.7,14c1.5,5.4,2.2,11.5,2.2,18.2c0,14.2-3.1,25.2-9.4,32.9c-6.3,7.7-15.2,11.5-26.8,11.5
				c-6.2,0-11.5-1.1-16.1-3.2c-4.6-2.1-8.3-5.1-11.3-9c-3-3.9-5.2-8.6-6.6-14C78.2,223.8,77.4,217.8,77.4,211.1z M95,211.1
				c0,4.3,0.4,8.3,1.1,11.9c0.7,3.6,1.8,6.7,3.4,9.3c1.5,2.6,3.4,4.6,5.8,6.1c2.4,1.5,5.2,2.2,8.4,2.2c5.9,0,10.5-2.3,13.8-6.9
				c3.2-4.6,4.9-12.1,4.9-22.6c0-4.1-0.3-8-1-11.6c-0.7-3.6-1.8-6.7-3.2-9.4c-1.5-2.7-3.4-4.8-5.7-6.3c-2.4-1.5-5.2-2.3-8.7-2.3
				c-5.9,0-10.5,2.4-13.8,7.1C96.6,193.5,95,200.9,95,211.1z"/>
		</g>
	</g>
	<path class="st0" d="M64.4,253h-54v-85.3h16.7v70.5h37.3V253z"/>
	<path class="st0" d="M64.4,253h-54v-85.3h16.7v70.5h37.3V253z"/>
	<g>
		<path class="st0" d="M213.7,167.7h15.8v55.1c0,5.5-0.7,10.3-2.2,14.3c-1.5,4-3.5,7.3-6.1,9.9c-2.6,2.6-5.8,4.5-9.5,5.7
			c-3.7,1.2-7.8,1.8-12.3,1.8c-21.6,0-32.4-9.9-32.4-29.6v-57.2h16.7v53.9c0,3.3,0.3,6.2,0.9,8.5s1.6,4.2,2.9,5.6
			c1.3,1.4,2.9,2.4,4.9,3c1.9,0.6,4.2,0.9,6.8,0.9c5.1,0,8.8-1.4,11.1-4.3c2.3-2.8,3.4-7.4,3.4-13.8V167.7z"/>
		<path class="st0" d="M271.8,217.8l2.2,14.5h0.6l2.4-14.6l16.3-50H311l-31.7,85.9h-11.9l-31.9-85.9h19.4L271.8,217.8z"/>
		<path class="st0" d="M317.2,167.7h50.6v14.9h-33.9v19.9h30.8v14.9h-30.8v20.8h34.5V253h-51.2V167.7z"/>
		<path class="st0" d="M441.4,182.6h-24.9V253h-16.7v-70.5h-25v-14.9h66.6V182.6z"/>
		<path class="st0" d="M450,167.7h50.6v14.9h-33.9v19.9h30.8v14.9h-30.8v20.8h34.5V253H450V167.7z"/>
		<path class="st0" d="M555.7,234.1h-26.2l-6.5,18.9h-16.7l30.7-85.9h12.3l30.7,85.9h-17.6L555.7,234.1z M533.8,220.7h18.3l-6.3-19
			l-2.6-13.4h-0.6l-2.6,13.5L533.8,220.7z"/>
		<path class="st0" d="M633.8,167.7h15.8v55.1c0,5.5-0.7,10.3-2.2,14.3c-1.5,4-3.5,7.3-6.1,9.9c-2.6,2.6-5.8,4.5-9.5,5.7
			c-3.7,1.2-7.8,1.8-12.3,1.8c-21.6,0-32.4-9.9-32.4-29.6v-57.2h16.7v53.9c0,3.3,0.3,6.2,0.9,8.5c0.6,2.3,1.6,4.2,2.9,5.6
			c1.3,1.4,2.9,2.4,4.9,3c2,0.6,4.2,0.9,6.8,0.9c5.1,0,8.8-1.4,11.1-4.3c2.3-2.8,3.4-7.4,3.4-13.8V167.7z"/>
		<path class="st0" d="M684,209.6l-23.8-41.9h20.1l13.2,24.6l2.9,8.7l2.8-8.7l13.8-24.6h18.2l-24.6,41.1l25.8,44.3h-19.9l-15-26.3
			l-3.3-9l-3.2,9L675.9,253h-18.2L684,209.6z"/>
		<path class="st0" d="M213.7,167.7h15.8v55.1c0,5.5-0.7,10.3-2.2,14.3c-1.5,4-3.5,7.3-6.1,9.9c-2.6,2.6-5.8,4.5-9.5,5.7
			c-3.7,1.2-7.8,1.8-12.3,1.8c-21.6,0-32.4-9.9-32.4-29.6v-57.2h16.7v53.9c0,3.3,0.3,6.2,0.9,8.5s1.6,4.2,2.9,5.6
			c1.3,1.4,2.9,2.4,4.9,3c1.9,0.6,4.2,0.9,6.8,0.9c5.1,0,8.8-1.4,11.1-4.3c2.3-2.8,3.4-7.4,3.4-13.8V167.7z"/>
		<path class="st0" d="M271.8,217.8l2.2,14.5h0.6l2.4-14.6l16.3-50H311l-31.7,85.9h-11.9l-31.9-85.9h19.4L271.8,217.8z"/>
		<path class="st0" d="M317.2,167.7h50.6v14.9h-33.9v19.9h30.8v14.9h-30.8v20.8h34.5V253h-51.2V167.7z"/>
		<path class="st0" d="M441.4,182.6h-24.9V253h-16.7v-70.5h-25v-14.9h66.6V182.6z"/>
		<path class="st0" d="M450,167.7h50.6v14.9h-33.9v19.9h30.8v14.9h-30.8v20.8h34.5V253H450V167.7z"/>
		<path class="st0" d="M555.7,234.1h-26.2l-6.5,18.9h-16.7l30.7-85.9h12.3l30.7,85.9h-17.6L555.7,234.1z M533.8,220.7h18.3l-6.3-19
			l-2.6-13.4h-0.6l-2.6,13.5L533.8,220.7z"/>
		<path class="st0" d="M633.8,167.7h15.8v55.1c0,5.5-0.7,10.3-2.2,14.3c-1.5,4-3.5,7.3-6.1,9.9c-2.6,2.6-5.8,4.5-9.5,5.7
			c-3.7,1.2-7.8,1.8-12.3,1.8c-21.6,0-32.4-9.9-32.4-29.6v-57.2h16.7v53.9c0,3.3,0.3,6.2,0.9,8.5c0.6,2.3,1.6,4.2,2.9,5.6
			c1.3,1.4,2.9,2.4,4.9,3c2,0.6,4.2,0.9,6.8,0.9c5.1,0,8.8-1.4,11.1-4.3c2.3-2.8,3.4-7.4,3.4-13.8V167.7z"/>
		<path class="st0" d="M684,209.6l-23.8-41.9h20.1l13.2,24.6l2.9,8.7l2.8-8.7l13.8-24.6h18.2l-24.6,41.1l25.8,44.3h-19.9l-15-26.3
			l-3.3-9l-3.2,9L675.9,253h-18.2L684,209.6z"/>
	</g>
	<text transform="matrix(1 0 0 1 -1.839797e-02 137.1155)" class="st0 st2 st3">LA MEUTE </text>
	<text transform="matrix(1 0 0 1 536.881 137.1155)" class="st0 st2 st4">des</text>
	<g>
		<path class="st0" d="M862,94.4c12.6-6.6,26.6-22.7,28.4-31.1c1.8-8.4-29-12.6-34.4-13.2c-5.4-0.6-19.7-11.7-29.9-21.2
			c-10.2-9.6-21.8-12.6-21.8-12.6c3.9-4.5,9.9-2.4,9.9-2.4c-13.5-7.2-22.7-0.9-22.7-0.9c-1.5-7.5,11.4-8.4,11.4-8.4
			c-16.7-7.5-31.4,4.8-31.4,4.8c0.6-5.4,7.8-7.5,7.8-7.5c-16.2,4.2-17.9,7.8-23.9,12.3c-6,4.5-13.5,6-13.5,6s-17.9-3.3-21.1-3.9
			c-3.1-0.6-7.3-4.8-17.5-4.5c-10.2,0.3-9.6,12.3-9.6,12.3s-6,6.9-3.3,18.2c2.7,11.4,12,19.4,15.3,22.4c3.3,3,7.2,17.6,7.2,17.6
			s-11.4,13.5-17.6,13.5c-6.3,0-6.6,6.9-6.6,6.9c3.3,14.4,9,13.5,26.3,15.6c7.4,0.9,15.5,5.4,22.3,10.2c0.7-1,1.4-2,2.4-2.9
			c1.9-1.8,3.3-4.4,3.3-4.4l-6.3-1.8c0,0-2-0.5,0.5-2.9c0.4-0.4,0.8-0.8,1.1-1.1c0,0,0,0-0.1,0c-5.5-1.5,1.5-4.2,1.5-4.2l0,0
			c0-0.3,0-0.7,0-1.1c0.1-6.8,4.3-9.7,4.3-9.7c0,1.6,0.6,1.5,0.6,1.5c1.1-3.2,4.4-3.9,4.4-3.9c-0.9,1.2-0.8,2.2-0.8,2.2
			c4.1-1.2,5.8,0.1,7.8,0.6c2,0.5,7.1-3.2,7.1-3.2c3-3,3.1,1,3.1,1s0.4,0.2,0.6,2.8c0.2,2.6-1.9,4.9-1.9,4.9c3.8-0.8,4.8,0,4,2.3
			c-0.7,2.3-5.5,5-5.5,5c-0.5,2.4-0.9,2.3-2.4,4.9c-1.5,2.7-1.3,8.2,1.4,14c2.7,5.8,0.5,9.1,0.5,9.1c-0.9-2.2-1.5-2.2-1.5-2.2
			c1.2,7.1-3.1,11.3-3.1,11.3l0.1-2.7c-0.7,1.9-2,3.3-2,3.3c0,8.5-1.2,12.2-2,15.6c-0.7,3.5,1.2,4.5,1.8,4.8
			c0.6,0.3,1.4,1.1,1.4,3.5c0,1.2-1,1.7-1.9,1.9c7.8,7.5,19.9,14,33.8,19.3c0-0.8,0-1.7,0-2.6c0,0-1.9-2-2.8-4.6l0.1,3.8
			c0,0-5.9-5.9-4.3-15.7c0,0-0.9,0-2.1,3c0,0-3.1-4.6,0.7-12.6c3.8-8.1,4-15.7,2-19.4c-2.1-3.7-2.7-3.5-3.4-6.9c0,0-6.6-3.7-7.7-6.9
			c-1-3.1,0.3-4.3,5.6-3.2c0,0-2.9-3.1-2.6-6.7c0.3-3.7,0.8-3.9,0.8-3.9s0.1-5.6,4.3-1.4c0,0,7,5,9.8,4.4c2.8-0.7,5.1-2.4,10.8-0.8
			c0,0,0.2-1.4-1.1-3c0,0,1.1,0.2,2.4,1c-1.7-2.8-2.4-3.1-3.1-6.6c0,0-8-4.5-9.3-8.3c-1.2-3.8,0.4-5.2,6.8-3.9c0,0-3.5-3.7-3.2-8.2
			c0.4-4.4,1-4.7,1-4.7s0.2-6.8,5.2-1.7c0,0,8.5,6.1,11.9,5.3c3.4-0.8,6.2-2.9,13.1-1c0,0,0.2-1.6-1.4-3.7c0,0,5.5,1.1,7.3,6.5
			c0,0,0.9,0.3,1-2.4c0,0,5.6,3.9,7,12.7c4.3,1.9,10.3,5.2,5.3,6.3c-0.5,0.1-1,0.2-1.5,0.3c1.6,1.5,3.4,3.1,4.3,4.1
			c2,2.3-0.9,3-0.9,3l-10.1,2.5c0,0,4.7,4.8,8.3,11.1c3.6,6.2,8.1,16.7,16.4,24.5c3.3,3,21,10.8,26.3,29
			c-3.5-23.4-14-49.5-20.8-62.9c-8.1-15.9-13.5-21.8-13.5-21.8S849.4,101,862,94.4z M781.4,70.3c-10.2,0-18.5-8.3-18.5-18.5
			c0-6.9,3.8-12.9,9.3-16.1c-2.3,3.1-3.8,7-3.8,11.2c0,10.2,8.3,18.5,18.5,18.5c3.4,0,6.5-0.9,9.2-2.5
			C792.8,67.4,787.4,70.3,781.4,70.3z"/>
		<g>
			<path class="st0" d="M850.4,203.6v3.7"/>
		</g>
	</g>
</g>
<g id="Calque_2" class="st5">
	<g class="st6">
		<g>
			<path class="st7" d="M77.4,211.1c0-14.2,3.1-25.2,9.4-32.9c6.3-7.7,15.2-11.5,26.8-11.5c6.1,0,11.4,1.1,16,3.2
				c4.6,2.1,8.3,5.1,11.3,9c3,3.9,5.2,8.6,6.7,14c1.5,5.4,2.2,11.5,2.2,18.2c0,14.2-3.1,25.2-9.4,32.9c-6.3,7.7-15.2,11.5-26.8,11.5
				c-6.2,0-11.5-1.1-16.1-3.2c-4.6-2.1-8.3-5.1-11.3-9c-3-3.9-5.2-8.6-6.6-14C78.2,223.8,77.4,217.8,77.4,211.1z M95,211.1
				c0,4.3,0.4,8.3,1.1,11.9c0.7,3.6,1.8,6.7,3.4,9.3c1.5,2.6,3.4,4.6,5.8,6.1c2.4,1.5,5.2,2.2,8.4,2.2c5.9,0,10.5-2.3,13.8-6.9
				c3.2-4.6,4.9-12.1,4.9-22.6c0-4.1-0.3-8-1-11.6c-0.7-3.6-1.8-6.7-3.2-9.4c-1.5-2.7-3.4-4.8-5.7-6.3c-2.4-1.5-5.2-2.3-8.7-2.3
				c-5.9,0-10.5,2.4-13.8,7.1C96.6,193.5,95,200.9,95,211.1z"/>
		</g>
		<g class="st1">
			<path class="st7" d="M77.4,211.1c0-14.2,3.1-25.2,9.4-32.9c6.3-7.7,15.2-11.5,26.8-11.5c6.1,0,11.4,1.1,16,3.2
				c4.6,2.1,8.3,5.1,11.3,9c3,3.9,5.2,8.6,6.7,14c1.5,5.4,2.2,11.5,2.2,18.2c0,14.2-3.1,25.2-9.4,32.9c-6.3,7.7-15.2,11.5-26.8,11.5
				c-6.2,0-11.5-1.1-16.1-3.2c-4.6-2.1-8.3-5.1-11.3-9c-3-3.9-5.2-8.6-6.6-14C78.2,223.8,77.4,217.8,77.4,211.1z M95,211.1
				c0,4.3,0.4,8.3,1.1,11.9c0.7,3.6,1.8,6.7,3.4,9.3c1.5,2.6,3.4,4.6,5.8,6.1c2.4,1.5,5.2,2.2,8.4,2.2c5.9,0,10.5-2.3,13.8-6.9
				c3.2-4.6,4.9-12.1,4.9-22.6c0-4.1-0.3-8-1-11.6c-0.7-3.6-1.8-6.7-3.2-9.4c-1.5-2.7-3.4-4.8-5.7-6.3c-2.4-1.5-5.2-2.3-8.7-2.3
				c-5.9,0-10.5,2.4-13.8,7.1C96.6,193.5,95,200.9,95,211.1z"/>
		</g>
	</g>
	<path class="st8" d="M64.4,253h-54v-85.3h16.7v70.5h37.3V253z"/>
	<path class="st8" d="M64.4,253h-54v-85.3h16.7v70.5h37.3V253z"/>
	<g class="st6">
		<path class="st7" d="M213.7,167.7h15.8v55.1c0,5.5-0.7,10.3-2.2,14.3c-1.5,4-3.5,7.3-6.1,9.9c-2.6,2.6-5.8,4.5-9.5,5.7
			c-3.7,1.2-7.8,1.8-12.3,1.8c-21.6,0-32.4-9.9-32.4-29.6v-57.2h16.7v53.9c0,3.3,0.3,6.2,0.9,8.5s1.6,4.2,2.9,5.6
			c1.3,1.4,2.9,2.4,4.9,3c1.9,0.6,4.2,0.9,6.8,0.9c5.1,0,8.8-1.4,11.1-4.3c2.3-2.8,3.4-7.4,3.4-13.8V167.7z"/>
		<path class="st7" d="M271.8,217.8l2.2,14.5h0.6l2.4-14.6l16.3-50H311l-31.7,85.9h-11.9l-31.9-85.9h19.4L271.8,217.8z"/>
		<path class="st7" d="M317.2,167.7h50.6v14.9h-33.9v19.9h30.8v14.9h-30.8v20.8h34.5V253h-51.2V167.7z"/>
		<path class="st7" d="M441.4,182.6h-24.9V253h-16.7v-70.5h-25v-14.9h66.6V182.6z"/>
		<path class="st7" d="M450,167.7h50.6v14.9h-33.9v19.9h30.8v14.9h-30.8v20.8h34.5V253H450V167.7z"/>
		<path class="st7" d="M555.7,234.1h-26.2l-6.5,18.9h-16.7l30.7-85.9h12.3l30.7,85.9h-17.6L555.7,234.1z M533.8,220.7h18.3l-6.3-19
			l-2.6-13.4h-0.6l-2.6,13.5L533.8,220.7z"/>
		<path class="st7" d="M633.8,167.7h15.8v55.1c0,5.5-0.7,10.3-2.2,14.3c-1.5,4-3.5,7.3-6.1,9.9c-2.6,2.6-5.8,4.5-9.5,5.7
			c-3.7,1.2-7.8,1.8-12.3,1.8c-21.6,0-32.4-9.9-32.4-29.6v-57.2h16.7v53.9c0,3.3,0.3,6.2,0.9,8.5c0.6,2.3,1.6,4.2,2.9,5.6
			c1.3,1.4,2.9,2.4,4.9,3c2,0.6,4.2,0.9,6.8,0.9c5.1,0,8.8-1.4,11.1-4.3c2.3-2.8,3.4-7.4,3.4-13.8V167.7z"/>
		<path class="st7" d="M684,209.6l-23.8-41.9h20.1l13.2,24.6l2.9,8.7l2.8-8.7l13.8-24.6h18.2l-24.6,41.1l25.8,44.3h-19.9l-15-26.3
			l-3.3-9l-3.2,9L675.9,253h-18.2L684,209.6z"/>
		<path class="st7" d="M213.7,167.7h15.8v55.1c0,5.5-0.7,10.3-2.2,14.3c-1.5,4-3.5,7.3-6.1,9.9c-2.6,2.6-5.8,4.5-9.5,5.7
			c-3.7,1.2-7.8,1.8-12.3,1.8c-21.6,0-32.4-9.9-32.4-29.6v-57.2h16.7v53.9c0,3.3,0.3,6.2,0.9,8.5s1.6,4.2,2.9,5.6
			c1.3,1.4,2.9,2.4,4.9,3c1.9,0.6,4.2,0.9,6.8,0.9c5.1,0,8.8-1.4,11.1-4.3c2.3-2.8,3.4-7.4,3.4-13.8V167.7z"/>
		<path class="st7" d="M271.8,217.8l2.2,14.5h0.6l2.4-14.6l16.3-50H311l-31.7,85.9h-11.9l-31.9-85.9h19.4L271.8,217.8z"/>
		<path class="st7" d="M317.2,167.7h50.6v14.9h-33.9v19.9h30.8v14.9h-30.8v20.8h34.5V253h-51.2V167.7z"/>
		<path class="st7" d="M441.4,182.6h-24.9V253h-16.7v-70.5h-25v-14.9h66.6V182.6z"/>
		<path class="st7" d="M450,167.7h50.6v14.9h-33.9v19.9h30.8v14.9h-30.8v20.8h34.5V253H450V167.7z"/>
		<path class="st7" d="M555.7,234.1h-26.2l-6.5,18.9h-16.7l30.7-85.9h12.3l30.7,85.9h-17.6L555.7,234.1z M533.8,220.7h18.3l-6.3-19
			l-2.6-13.4h-0.6l-2.6,13.5L533.8,220.7z"/>
		<path class="st7" d="M633.8,167.7h15.8v55.1c0,5.5-0.7,10.3-2.2,14.3c-1.5,4-3.5,7.3-6.1,9.9c-2.6,2.6-5.8,4.5-9.5,5.7
			c-3.7,1.2-7.8,1.8-12.3,1.8c-21.6,0-32.4-9.9-32.4-29.6v-57.2h16.7v53.9c0,3.3,0.3,6.2,0.9,8.5c0.6,2.3,1.6,4.2,2.9,5.6
			c1.3,1.4,2.9,2.4,4.9,3c2,0.6,4.2,0.9,6.8,0.9c5.1,0,8.8-1.4,11.1-4.3c2.3-2.8,3.4-7.4,3.4-13.8V167.7z"/>
		<path class="st7" d="M684,209.6l-23.8-41.9h20.1l13.2,24.6l2.9,8.7l2.8-8.7l13.8-24.6h18.2l-24.6,41.1l25.8,44.3h-19.9l-15-26.3
			l-3.3-9l-3.2,9L675.9,253h-18.2L684,209.6z"/>
	</g>
	<text transform="matrix(1 0 0 1 -1.839797e-02 137.1155)" class="st8 st2 st3">LA MEUTE </text>
	<text transform="matrix(1 0 0 1 536.881 137.1155)" class="st8 st2 st4">des</text>
	<g class="st6">
		<path class="st7" d="M862,94.4c12.6-6.6,26.6-22.7,28.4-31.1c1.8-8.4-29-12.6-34.4-13.2c-5.4-0.6-19.7-11.7-29.9-21.2
			c-10.2-9.6-21.8-12.6-21.8-12.6c3.9-4.5,9.9-2.4,9.9-2.4c-13.5-7.2-22.7-0.9-22.7-0.9c-1.5-7.5,11.4-8.4,11.4-8.4
			c-16.7-7.5-31.4,4.8-31.4,4.8c0.6-5.4,7.8-7.5,7.8-7.5c-16.2,4.2-17.9,7.8-23.9,12.3c-6,4.5-13.5,6-13.5,6s-17.9-3.3-21.1-3.9
			c-3.1-0.6-7.3-4.8-17.5-4.5c-10.2,0.3-9.6,12.3-9.6,12.3s-6,6.9-3.3,18.2c2.7,11.4,12,19.4,15.3,22.4c3.3,3,7.2,17.6,7.2,17.6
			s-11.4,13.5-17.6,13.5c-6.3,0-6.6,6.9-6.6,6.9c3.3,14.4,9,13.5,26.3,15.6c7.4,0.9,15.5,5.4,22.3,10.2c0.7-1,1.4-2,2.4-2.9
			c1.9-1.8,3.3-4.4,3.3-4.4l-6.3-1.8c0,0-2-0.5,0.5-2.9c0.4-0.4,0.8-0.8,1.1-1.1c0,0,0,0-0.1,0c-5.5-1.5,1.5-4.2,1.5-4.2l0,0
			c0-0.3,0-0.7,0-1.1c0.1-6.8,4.3-9.7,4.3-9.7c0,1.6,0.6,1.5,0.6,1.5c1.1-3.2,4.4-3.9,4.4-3.9c-0.9,1.2-0.8,2.2-0.8,2.2
			c4.1-1.2,5.8,0.1,7.8,0.6c2,0.5,7.1-3.2,7.1-3.2c3-3,3.1,1,3.1,1s0.4,0.2,0.6,2.8c0.2,2.6-1.9,4.9-1.9,4.9c3.8-0.8,4.8,0,4,2.3
			c-0.7,2.3-5.5,5-5.5,5c-0.5,2.4-0.9,2.3-2.4,4.9c-1.5,2.7-1.3,8.2,1.4,14c2.7,5.8,0.5,9.1,0.5,9.1c-0.9-2.2-1.5-2.2-1.5-2.2
			c1.2,7.1-3.1,11.3-3.1,11.3l0.1-2.7c-0.7,1.9-2,3.3-2,3.3c0,8.5-1.2,12.2-2,15.6c-0.7,3.5,1.2,4.5,1.8,4.8
			c0.6,0.3,1.4,1.1,1.4,3.5c0,1.2-1,1.7-1.9,1.9c7.8,7.5,19.9,14,33.8,19.3c0-0.8,0-1.7,0-2.6c0,0-1.9-2-2.8-4.6l0.1,3.8
			c0,0-5.9-5.9-4.3-15.7c0,0-0.9,0-2.1,3c0,0-3.1-4.6,0.7-12.6c3.8-8.1,4-15.7,2-19.4c-2.1-3.7-2.7-3.5-3.4-6.9c0,0-6.6-3.7-7.7-6.9
			c-1-3.1,0.3-4.3,5.6-3.2c0,0-2.9-3.1-2.6-6.7c0.3-3.7,0.8-3.9,0.8-3.9s0.1-5.6,4.3-1.4c0,0,7,5,9.8,4.4c2.8-0.7,5.1-2.4,10.8-0.8
			c0,0,0.2-1.4-1.1-3c0,0,1.1,0.2,2.4,1c-1.7-2.8-2.4-3.1-3.1-6.6c0,0-8-4.5-9.3-8.3c-1.2-3.8,0.4-5.2,6.8-3.9c0,0-3.5-3.7-3.2-8.2
			c0.4-4.4,1-4.7,1-4.7s0.2-6.8,5.2-1.7c0,0,8.5,6.1,11.9,5.3c3.4-0.8,6.2-2.9,13.1-1c0,0,0.2-1.6-1.4-3.7c0,0,5.5,1.1,7.3,6.5
			c0,0,0.9,0.3,1-2.4c0,0,5.6,3.9,7,12.7c4.3,1.9,10.3,5.2,5.3,6.3c-0.5,0.1-1,0.2-1.5,0.3c1.6,1.5,3.4,3.1,4.3,4.1
			c2,2.3-0.9,3-0.9,3l-10.1,2.5c0,0,4.7,4.8,8.3,11.1c3.6,6.2,8.1,16.7,16.4,24.5c3.3,3,21,10.8,26.3,29
			c-3.5-23.4-14-49.5-20.8-62.9c-8.1-15.9-13.5-21.8-13.5-21.8S849.4,101,862,94.4z M781.4,70.3c-10.2,0-18.5-8.3-18.5-18.5
			c0-6.9,3.8-12.9,9.3-16.1c-2.3,3.1-3.8,7-3.8,11.2c0,10.2,8.3,18.5,18.5,18.5c3.4,0,6.5-0.9,9.2-2.5
			C792.8,67.4,787.4,70.3,781.4,70.3z"/>
		<g>
			<path class="st7" d="M850.4,203.6v3.7"/>
		</g>
	</g>
</g>
</svg>
